solid OBJECT
  facet normal 8.8859987560398065e-08 -0.0017383683903196335 -0.99999848903652433
    outer loop
      vertex 38.036236939959295 1.5234563546282729 9.975163459777832
      vertex 38.055360017351873 -5.6204416556256334 9.9875822067260742
      vertex 27.379487214617498 -12.764337758530907 10
    endloop
  endfacet
  facet normal -0 -0.0017382355979267585 -0.99999848926736179
    outer loop
      vertex 27.379487214617498 -12.764337758530907 10
      vertex 38.055360017351873 -5.6204416556256334 9.9875822067260742
      vertex 38.074483094744451 -12.764337758530907 10
    endloop
  endfacet
  facet normal -0.99999641728101696 -0.0026768311732892763 -1.0211298609635719e-09
    outer loop
      vertex 38.055360017351873 -5.6204416556256334 9.9875822067260742
      vertex 38.036236939959295 1.5234563546282729 9.975163459777832
      vertex 38.074483094744451 -12.764337758530907 5
    endloop
  endfacet
  facet normal -0.99999174884620357 -0.0013416594470530697 -0.0038343434170570174
    outer loop
      vertex 38.074483094744451 -12.764337758530907 5
      vertex 38.036236939959295 1.5234563546282729 9.975163459777832
      vertex 38.045708833269842 8.7356603341204604 4.9813132286071777
    endloop
  endfacet
  facet normal 0 -0.0017382577951761335 -0.99999848922877743
    outer loop
      vertex 16.719016252093084 -2.014340619553856 9.9813137054443359
      vertex 27.379487214617498 -12.764337758530907 10
      vertex 16.684481797747381 -12.764337758530907 10
    endloop
  endfacet
  facet normal -0 -1 0
    outer loop
      vertex 27.379487214617498 -12.764337758530907 14.25
      vertex 16.684481797747381 -12.764337758530907 10
      vertex 27.379487214617498 -12.764337758530907 10
    endloop
  endfacet
  facet normal -2.5506248364068631e-08 -0.0017382830889315587 -0.99999848918480971
    outer loop
      vertex 27.379487214617498 -12.764337758530907 10
      vertex 16.719016252093084 -2.014340619553856 9.9813137054443359
      vertex 38.036236939959295 1.5234563546282729 9.975163459777832
    endloop
  endfacet
  facet normal 0.99999483993535654 -0.00321249165922778 0
    outer loop
      vertex 16.719016252093084 -2.014340619553856 9.9813137054443359
      vertex 16.684481797747381 -12.764337758530907 10
      vertex 16.684481797747381 -12.764337758530907 1.7347234759768071e-15
    endloop
  endfacet
  facet normal -0 -1 -0
    outer loop
      vertex -4.8155124802067206 -12.764337758530907 14.25
      vertex 16.684481797747381 -12.764337758530907 10
      vertex 27.379487214617498 -12.764337758530907 14.25
    endloop
  endfacet
  facet normal 0.99999401456262393 -6.9791219573620747e-20 -0.0034598900165869473
    outer loop
      vertex 16.719016252093084 -2.014340619553856 9.9813137054443359
      vertex 16.684481797747381 -12.764337758530907 1.7347334286139373e-15
      vertex 16.684481797747381 -2.014340619553856 1.5178897118641658e-15
    endloop
  endfacet
  facet normal -0 -1 0
    outer loop
      vertex 59.574486909441717 -12.764337758530907 14.25
      vertex 38.074483094744451 -12.764337758530907 10
      vertex 38.074483094744451 -12.764337758530907 5
    endloop
  endfacet
  facet normal -0.99999641727910871 -0.0026768318861961496 0
    outer loop
      vertex 38.074483094744451 -12.764337758530907 10
      vertex 38.055360017351873 -5.6204416556256334 9.9875822067260742
      vertex 38.074483094744451 -12.764337758530907 5
    endloop
  endfacet
  facet normal -0 -1 -0
    outer loop
      vertex 38.074483094744451 -12.764337758530907 10
      vertex 59.574486909441717 -12.764337758530907 14.25
      vertex 27.379487214617498 -12.764337758530907 14.25
    endloop
  endfacet
  facet normal 0 -1 0
    outer loop
      vertex 38.074483094744451 -12.764337758530907 10
      vertex 27.379487214617498 -12.764337758530907 14.25
      vertex 27.379487214617498 -12.764337758530907 10
    endloop
  endfacet
  facet normal 2.3237215560433915e-17 -1.2909571199039168e-17 -1
    outer loop
      vertex 48.824483094744451 8.7356603341204604 1.124100812432971e-15
      vertex 59.574486909441717 -2.014340619553856 1.5126788710517758e-15
      vertex 48.824483094744451 -12.764337758530907 1.4016565685892601e-15
    endloop
  endfacet
  facet normal 2.5819137969746616e-17 -1.2909571199039168e-17 -1
    outer loop
      vertex 48.824483094744451 8.7356603341204604 1.124100812432971e-15
      vertex 48.824483094744451 -12.764337758530907 1.4016565685892601e-15
      vertex 38.074483094744451 -5.5976726813214341 1.0315822623405808e-15
    endloop
  endfacet
  facet normal 1.5491473757213939e-17 -5.1638228678507913e-18 -1
    outer loop
      vertex 48.824483094744451 8.7356603341204604 1.124100812432971e-15
      vertex 38.074483094744451 -5.5976726813214341 1.0315822623405808e-15
      vertex 38.074483094744451 1.5689943032366713 9.9457486347944834e-16
    endloop
  endfacet
  facet normal 3.0982968129074136e-17 -5.1638242421595357e-18 -1
    outer loop
      vertex 38.074483094744451 -12.764337758530907 1.0685896612017132e-15
      vertex 38.074483094744451 -5.5976726813214341 1.0315822623405808e-15
      vertex 48.824483094744451 -12.764337758530907 1.4016565685892601e-15
    endloop
  endfacet
  facet normal 1.5491484064537068e-17 -5.163838328836858e-18 -1
    outer loop
      vertex 38.074483094744451 8.7356603341204604 9.5756735873919752e-16
      vertex 48.824483094744451 8.7356603341204604 1.124100812432971e-15
      vertex 38.074483094744451 1.5689943032366713 9.9457486347944834e-16
    endloop
  endfacet
  facet normal -0.99998331678276209 0 -0.0057763445314198318
    outer loop
      vertex 38.074483094744451 -5.5976726813214341 9.4868124196867106e-16
      vertex 38.045708833269842 8.7356603341204604 4.9813132286071777
      vertex 38.074483094744451 1.5689943032366713 7.589446441738461e-16
    endloop
  endfacet
  facet normal -1 -0 -0
    outer loop
      vertex 38.074483094744451 -5.5976726813214341 9.4947194722493295e-16
      vertex 38.074483094744451 -12.764337758530907 9.6797569959505836e-16
      vertex 38.074483094744451 -12.764337758530907 5
    endloop
  endfacet
  facet normal -0.99999725770231662 -0.0013400035473883256 -0.0019206713252809446
    outer loop
      vertex 38.074483094744451 -12.764337758530907 5
      vertex 38.045708833269842 8.7356603341204604 4.9813132286071777
      vertex 38.074483094744451 -5.5976726813214341 9.5988685258613501e-16
    endloop
  endfacet
  facet normal 2.2089596620654784e-08 -0.0017383459627863908 -0.99999848907551525
    outer loop
      vertex 16.719016252093084 -2.014340619553856 9.9813137054443359
      vertex 16.753548799090154 8.7356603341204604 9.9626264572143555
      vertex 38.017113862566717 8.6673543648821791 9.9627456665039062
    endloop
  endfacet
  facet normal 0.99998883582615483 -0.0032183082687670043 -0.0034598720986210923
    outer loop
      vertex 16.753548799090154 8.7356603341204604 9.9626264572143555
      vertex 16.719016252093084 -2.014340619553856 9.9813137054443359
      vertex 16.684481797747381 -2.014340619553856 1.5452527935878608e-15
    endloop
  endfacet
  facet normal -3.3450019674093676e-08 -0.001738235223376913 -0.99999848926801238
    outer loop
      vertex 16.719016252093084 -2.014340619553856 9.9813137054443359
      vertex 38.017113862566717 8.6673543648821791 9.9627456665039062
      vertex 38.036236939959295 1.5234563546282729 9.975163459777832
    endloop
  endfacet
  facet normal 0.99997597032717189 0 -0.0069324431646551254
    outer loop
      vertex 16.753548799090154 8.7356603341204604 9.9626264572143555
      vertex 16.684481797747381 -2.014340619553856 1.5179096171384263e-15
      vertex 16.684481797747381 8.7356603341204604 1.5721063849937823e-15
    endloop
  endfacet
  facet normal -0.99997970319585439 -0.0026868282934533107 -0.0057770364420553959
    outer loop
      vertex 38.036236939959295 1.5234563546282729 9.975163459777832
      vertex 38.017113862566717 8.6673543648821791 9.9627456665039062
      vertex 38.045708833269842 8.7356603341204604 4.9813132286071777
    endloop
  endfacet
  facet normal -1 0 0
    outer loop
      vertex 16.684481797747381 -12.764337758530907 10
      vertex 16.684481797747381 -2.014340619553856 1.510944147575799e-15
      vertex 16.684481797747381 -12.764337758530907 1.7347234759768071e-15
    endloop
  endfacet
  facet normal -1 0 -0
    outer loop
      vertex 16.684481797747381 -2.014340619553856 1.510944147575799e-15
      vertex 16.684481797747381 -12.764337758530907 10
      vertex 16.684481797747381 8.7356603341204604 10
    endloop
  endfacet
  facet normal -0 -0 1
    outer loop
      vertex -4.8155124802067206 19.430661936293312 14.25
      vertex -4.8155124802067206 -12.764337758530907 14.25
      vertex 27.379487214617498 -12.764337758530907 14.25
    endloop
  endfacet
  facet normal -1 0 -0
    outer loop
      vertex -4.8155124802067206 19.430661936293312 14.25
      vertex -4.8155124802067206 8.7356603341204604 9.9626264572143555
      vertex -4.8155124802067206 -12.764337758530907 14.25
    endloop
  endfacet
  facet normal 0 -0 1
    outer loop
      vertex 27.379487214617498 51.625661631117531 14.25
      vertex -4.8155124802067206 19.430661936293312 14.25
      vertex 27.379487214617498 -12.764337758530907 14.25
    endloop
  endfacet
  facet normal -1 0 -0
    outer loop
      vertex -4.8155124802067206 30.125657816420265 10.063785552978516
      vertex -4.8155124802067206 8.7356603341204604 9.9626264572143555
      vertex -4.8155124802067206 19.430661936293312 14.25
    endloop
  endfacet
  facet normal -0 0 1
    outer loop
      vertex 27.379487214617498 -12.764337758530907 14.25
      vertex 59.574486909441717 19.430661936293312 14.25
      vertex 27.379487214617498 51.625661631117531 14.25
    endloop
  endfacet
  facet normal 0 0 1
    outer loop
      vertex 59.574486909441717 -12.764337758530907 14.25
      vertex 59.574486909441717 19.430661936293312 14.25
      vertex 27.379487214617498 -12.764337758530907 14.25
    endloop
  endfacet
  facet normal 0 0 1
    outer loop
      vertex 59.574486909441717 19.430661936293312 14.25
      vertex 59.574486909441717 51.625661631117531 14.25
      vertex 27.379487214617498 51.625661631117531 14.25
    endloop
  endfacet
  facet normal 1 0 -0
    outer loop
      vertex 59.574486909441717 19.430661936293312 14.25
      vertex 59.574486909441717 -12.764337758530907 14.25
      vertex 59.574486909441717 8.7356603341204604 9.9626264572143555
    endloop
  endfacet
  facet normal 1 0 -0
    outer loop
      vertex 59.574486909441717 51.625661631117531 14.25
      vertex 59.574486909441717 19.430661936293312 14.25
      vertex 59.574486909441717 30.125657816420265 10.063785552978516
    endloop
  endfacet
  facet normal 1 0 0
    outer loop
      vertex 59.574486909441717 19.430661936293312 10.013206481933594
      vertex 59.574486909441717 19.430661936293312 14.25
      vertex 59.574486909441717 8.7356603341204604 9.9626264572143555
    endloop
  endfacet
  facet normal 1 -0 0
    outer loop
      vertex 59.574486909441717 19.430661936293312 10.013206481933594
      vertex 59.574486909441717 30.125657816420265 10.063785552978516
      vertex 59.574486909441717 19.430661936293312 14.25
    endloop
  endfacet
  facet normal -0 -1 0
    outer loop
      vertex 16.684481797747381 -12.764337758530907 10
      vertex -4.8155124802067206 -12.764337758530907 1.7347234759768071e-15
      vertex 5.9344837050960138 -12.764337758530907 1.3565537582138631e-15
    endloop
  endfacet
  facet normal 0 -1 0
    outer loop
      vertex -4.8155124802067206 -12.764337758530907 14.25
      vertex -4.8155124802067206 -12.764337758530907 1.7347234759768071e-15
      vertex 16.684481797747381 -12.764337758530907 10
    endloop
  endfacet
  facet normal 0 -1 0
    outer loop
      vertex 38.074483094744451 -12.764337758530907 5
      vertex 38.074483094744451 -12.764337758530907 9.6797569959505836e-16
      vertex 48.824483094744451 -12.764337758530907 1.6930901125533637e-15
    endloop
  endfacet
  facet normal -0 -1 -0
    outer loop
      vertex 38.074483094744451 -12.764337758530907 5
      vertex 48.824483094744451 -12.764337758530907 1.6930901125533637e-15
      vertex 59.574486909441717 -12.764337758530907 1.7347234759768071e-15
    endloop
  endfacet
  facet normal 0 -1 -0
    outer loop
      vertex 59.574486909441717 -12.764337758530907 1.7347234759768071e-15
      vertex 59.574486909441717 -12.764337758530907 14.25
      vertex 38.074483094744451 -12.764337758530907 5
    endloop
  endfacet
  facet normal 1 -0 0
    outer loop
      vertex 59.574486909441717 -12.764337758530907 1.7347234759768071e-15
      vertex 59.574486909441717 8.7356603341204604 9.9626264572143555
      vertex 59.574486909441717 -12.764337758530907 14.25
    endloop
  endfacet
  facet normal 1 0 0
    outer loop
      vertex 59.574486909441717 8.7356603341204604 9.9626264572143555
      vertex 59.574486909441717 -12.764337758530907 1.7347234759768071e-15
      vertex 59.574486909441717 -2.014340619553856 1.0564465968698755e-15
    endloop
  endfacet
  facet normal 1 0 -0
    outer loop
      vertex 59.574486909441717 8.7356603341204604 9.9626264572143555
      vertex 59.574486909441717 -2.014340619553856 1.0564465968698755e-15
      vertex 59.574486909441717 8.7356603341204604 1.6237011735142914e-15
    endloop
  endfacet
  facet normal -0 0 1
    outer loop
      vertex 38.074483094744451 -12.764337758530907 1.7347234759768071e-15
      vertex 48.824483094744451 -12.764337758530907 1.7347234759768071e-15
      vertex 38.074483094744451 -2.014340619553856 1.7347234759768071e-15
    endloop
  endfacet
  facet normal 0 0 1
    outer loop
      vertex 48.824483094744451 -12.764337758530907 1.7347234759768071e-15
      vertex 59.574486909441717 -2.014340619553856 1.7347234759768071e-15
      vertex 38.074483094744451 -2.014340619553856 1.7347234759768071e-15
    endloop
  endfacet
  facet normal -0 0 1
    outer loop
      vertex 48.824483094744451 8.7356603341204604 1.7347234759768071e-15
      vertex 38.074483094744451 8.7356603341204604 1.7347234759768071e-15
      vertex 38.074483094744451 -2.014340619553856 1.7347234759768071e-15
    endloop
  endfacet
  facet normal -0 -0 1
    outer loop
      vertex 48.824483094744451 8.7356603341204604 1.7347234759768071e-15
      vertex 38.074483094744451 -2.014340619553856 1.7347234759768071e-15
      vertex 59.574486909441717 -2.014340619553856 1.7347234759768071e-15
    endloop
  endfacet
  facet normal -0 1 -0
    outer loop
      vertex 38.045708833269842 8.7356603341204604 4.9813132286071777
      vertex 48.824483094744451 8.7356603341204604 1.5660216179380626e-15
      vertex 38.074483094744451 8.7356603341204604 9.3501595355149902e-16
    endloop
  endfacet
  facet normal 0 1 0
    outer loop
      vertex 48.824483094744451 8.7356603341204604 1.5660216179380626e-15
      vertex 38.045708833269842 8.7356603341204604 4.9813132286071777
      vertex 48.795708833269842 8.7356603341204604 9.9626264572143555
    endloop
  endfacet
  facet normal -0.99998331678276231 1.3107932700034156e-19 -0.0057763445314198336
    outer loop
      vertex 38.074483094744451 1.5689943032366713 7.589446441738461e-16
      vertex 38.045708833269842 8.7356603341204604 4.9813132286071777
      vertex 38.074483094744451 8.7356603341204604 9.2157375243681009e-16
    endloop
  endfacet
  facet normal -0 1 0
    outer loop
      vertex 48.795708833269842 8.7356603341204604 9.9626264572143555
      vertex 38.045708833269842 8.7356603341204604 4.9813132286071777
      vertex 38.016930757097967 8.7356603341204604 9.9626264572143555
    endloop
  endfacet
  facet normal -0.99997969249696261 -0.0026906935822092713 -0.0057770893819203148
    outer loop
      vertex 38.016930757097967 8.7356603341204604 9.9626264572143555
      vertex 38.045708833269842 8.7356603341204604 4.9813132286071777
      vertex 38.017113862566717 8.6673543648821791 9.9627456665039062
    endloop
  endfacet
  facet normal -1 0 0
    outer loop
      vertex -4.8155124802067206 8.7356603341204604 9.9626264572143555
      vertex -4.8155124802067206 -2.014340619553856 1.0286910212542466e-15
      vertex -4.8155124802067206 -12.764337758530907 1.7347234759768071e-15
    endloop
  endfacet
  facet normal -1 0 -0
    outer loop
      vertex -4.8155124802067206 8.7356603341204604 1.5126788710517758e-15
      vertex -4.8155124802067206 -2.014340619553856 1.0286910212542466e-15
      vertex -4.8155124802067206 8.7356603341204604 9.9626264572143555
    endloop
  endfacet
  facet normal -1 0 0
    outer loop
      vertex -4.8155124802067206 -12.764337758530907 14.25
      vertex -4.8155124802067206 8.7356603341204604 9.9626264572143555
      vertex -4.8155124802067206 -12.764337758530907 1.7347234759768071e-15
    endloop
  endfacet
  facet normal 0 1 0
    outer loop
      vertex 5.9344837050960138 8.7356603341204604 1.6375789613221059e-15
      vertex -4.8155124802067206 8.7356603341204604 1.5126788710517758e-15
      vertex -4.8155124802067206 8.7356603341204604 9.9626264572143555
    endloop
  endfacet
  facet normal -0 1 0
    outer loop
      vertex 5.9344837050960138 8.7356603341204604 1.6375789613221059e-15
      vertex -4.8155124802067206 8.7356603341204604 9.9626264572143555
      vertex 5.9690162520930841 8.7356603341204604 9.9626264572143555
    endloop
  endfacet
  facet normal 0 1 0
    outer loop
      vertex 16.684481797747381 8.7356603341204604 1.5681900222830336e-15
      vertex 5.9344837050960138 8.7356603341204604 1.6375789613221059e-15
      vertex 5.9690162520930841 8.7356603341204604 9.9626264572143555
    endloop
  endfacet
  facet normal 0 0 -1
    outer loop
      vertex 5.9690162520930841 8.7356603341204604 9.9626264572143555
      vertex -4.8155124802067206 8.7356603341204604 9.9626264572143555
      vertex -4.8155124802067206 30.125657816420265 9.9626264572143555
    endloop
  endfacet
  facet normal -0 1 0
    outer loop
      vertex 16.684481797747381 8.7356603341204604 1.5681900222830336e-15
      vertex 5.9690162520930841 8.7356603341204604 9.9626264572143555
      vertex 16.753548799090154 8.7356603341204604 9.9626264572143555
    endloop
  endfacet
  facet normal 0.0047156869244230583 0.0023775814453019278 -0.99998605460441381
    outer loop
      vertex 5.9690162520930841 8.7356603341204604 9.9626264572143555
      vertex -4.8155124802067206 30.125657816420265 9.9626264572143555
      vertex 5.9102460723445489 30.125657816420265 10.013206481933594
    endloop
  endfacet
  facet normal 0 0 -1
    outer loop
      vertex 5.9690162520930841 8.7356603341204604 9.9626264572143555
      vertex 16.753861604265936 8.8327024178606948 9.9626264572143555
      vertex 16.753548799090154 8.7356603341204604 9.9626264572143555
    endloop
  endfacet
  facet normal -1 0 -0
    outer loop
      vertex 16.684481797747381 8.7356603341204604 1.5681900222830336e-15
      vertex 16.684481797747381 -2.014340619553856 1.510944147575799e-15
      vertex 16.684481797747381 8.7356603341204604 10
    endloop
  endfacet
  facet normal 0 -1 -0
    outer loop
      vertex 5.9344837050960138 8.7356603341204604 1.6375789613221059e-15
      vertex 16.684481797747381 8.7356603341204604 1.5681900222830336e-15
      vertex 16.684481797747381 8.7356603341204604 10
    endloop
  endfacet
  facet normal -0 -1 -0
    outer loop
      vertex 5.9344837050960138 8.7356603341204604 1.6375789613221059e-15
      vertex 16.684481797747381 8.7356603341204604 10
      vertex -4.8155124802067206 8.7356603341204604 10
    endloop
  endfacet
  facet normal -0 0 1
    outer loop
      vertex -4.8155124802067206 19.430661936293312 14.25
      vertex 27.379487214617498 51.625661631117531 14.25
      vertex -4.8155124802067206 51.625661631117531 14.25
    endloop
  endfacet
  facet normal -0 1 0
    outer loop
      vertex 27.379487214617498 51.625661631117531 14.25
      vertex 16.684481797747381 51.625661631117531 10
      vertex -4.8155124802067206 51.625661631117531 14.25
    endloop
  endfacet
  facet normal -1 0 0
    outer loop
      vertex -4.8155124802067206 19.430661936293312 14.25
      vertex -4.8155124802067206 51.625661631117531 14.25
      vertex -4.8155124802067206 30.125657816420265 10.063785552978516
    endloop
  endfacet
  facet normal -0 1 -0
    outer loop
      vertex 27.379487214617498 51.625661631117531 14.25
      vertex 38.074483094744451 51.625661631117531 10
      vertex 27.379487214617498 51.625661631117531 10
    endloop
  endfacet
  facet normal -0 1 0
    outer loop
      vertex 38.074483094744451 51.625661631117531 10
      vertex 27.379487214617498 51.625661631117531 14.25
      vertex 59.574486909441717 51.625661631117531 14.25
    endloop
  endfacet
  facet normal 0 1 -0
    outer loop
      vertex 27.379487214617498 51.625661631117531 14.25
      vertex 27.379487214617498 51.625661631117531 10
      vertex 16.684481797747381 51.625661631117531 10
    endloop
  endfacet
  facet normal -0 1 -0
    outer loop
      vertex 38.074483094744451 51.625661631117531 10
      vertex 48.824483094744451 51.625661631117531 1.4432899320127035e-15
      vertex 38.074483094744451 51.625661631117531 1.4016565685892601e-15
    endloop
  endfacet
  facet normal 3.0982968129074136e-17 -5.6802108236635918e-17 -1
    outer loop
      vertex 38.074483094744451 40.875661631117531 1.6792123247455493e-15
      vertex 38.074483094744451 51.625661631117531 1.0685896612017132e-15
      vertex 48.824483094744451 51.625661631117531 1.4016565685892601e-15
    endloop
  endfacet
  facet normal 0 1 0
    outer loop
      vertex 38.074483094744451 51.625661631117531 10
      vertex 59.574486909441717 51.625661631117531 1.7347234759768071e-15
      vertex 48.824483094744451 51.625661631117531 1.4432899320127035e-15
    endloop
  endfacet
  facet normal 0 1 -0
    outer loop
      vertex 38.074483094744451 51.625661631117531 10
      vertex 59.574486909441717 51.625661631117531 14.25
      vertex 59.574486909441717 51.625661631117531 1.7347234759768071e-15
    endloop
  endfacet
  facet normal 1 0 0
    outer loop
      vertex 59.574486909441717 51.625661631117531 1.7347234759768071e-15
      vertex 59.574486909441717 51.625661631117531 14.25
      vertex 59.574486909441717 30.125657816420265 10.063785552978516
    endloop
  endfacet
  facet normal -0 1 0
    outer loop
      vertex 48.824483094744451 8.7356603341204604 1.5660216179380626e-15
      vertex 48.795708833269842 8.7356603341204604 9.9626264572143555
      vertex 59.574486909441717 8.7356603341204604 9.9626264572143555
    endloop
  endfacet
  facet normal -0 0.0047292614777687241 -0.99998881698040742
    outer loop
      vertex 59.574486909441717 19.430661936293312 10.013206481933594
      vertex 59.574486909441717 8.7356603341204604 9.9626264572143555
      vertex 48.795708833269842 8.7356603341204604 9.9626264572143555
    endloop
  endfacet
  facet normal 0 1 -0
    outer loop
      vertex 48.824483094744451 8.7356603341204604 1.5660216179380626e-15
      vertex 59.574486909441717 8.7356603341204604 9.9626264572143555
      vertex 59.574486909441717 8.7356603341204604 1.6237011735142914e-15
    endloop
  endfacet
  facet normal 2.1583329597440147e-05 0.0047291629784785962 -0.99998881721331412
    outer loop
      vertex 27.385396180681951 8.7841813759905776 9.9626264572143555
      vertex 38.065739808611639 19.430661936293312 10.013206481933594
      vertex 38.016930757097967 8.7356603341204604 9.9626264572143555
    endloop
  endfacet
  facet normal -0 0.0047292614777687241 -0.99998881698040742
    outer loop
      vertex 38.065739808611639 19.430661936293312 10.013206481933594
      vertex 48.795708833269842 8.7356603341204604 9.9626264572143555
      vertex 38.016930757097967 8.7356603341204604 9.9626264572143555
    endloop
  endfacet
  facet normal 1.0805165651185285e-05 0.0047399751819596752 -0.99998876619616217
    outer loop
      vertex 27.375279603533514 30.125657816420265 10.063785552978516
      vertex 38.065739808611639 19.430661936293312 10.013206481933594
      vertex 27.385396180681951 8.7841813759905776 9.9626264572143555
    endloop
  endfacet
  facet normal 0 0.0047292614777687241 -0.99998881698040742
    outer loop
      vertex 38.065739808611639 19.430661936293312 10.013206481933594
      vertex 59.574486909441717 19.430661936293312 10.013206481933594
      vertex 48.795708833269842 8.7356603341204604 9.9626264572143555
    endloop
  endfacet
  facet normal 0 0.0047291748408137555 -0.99998881739013712
    outer loop
      vertex 38.114552674822576 30.125657816420265 10.063785552978516
      vertex 38.065739808611639 19.430661936293312 10.013206481933594
      vertex 27.375279603533514 30.125657816420265 10.063785552978516
    endloop
  endfacet
  facet normal 0 0.0047291748408137555 -0.99998881739013712
    outer loop
      vertex 59.574486909441717 19.430661936293312 10.013206481933594
      vertex 38.065739808611639 19.430661936293312 10.013206481933594
      vertex 48.844517884783514 30.125657816420265 10.063785552978516
    endloop
  endfacet
  facet normal 0 0.0047291748408137563 -0.99998881739013723
    outer loop
      vertex 38.065739808611639 19.430661936293312 10.013206481933594
      vertex 38.114552674822576 30.125657816420265 10.063785552978516
      vertex 48.844517884783514 30.125657816420265 10.063785552978516
    endloop
  endfacet
  facet normal 0 0.0047291748408137563 -0.99998881739013723
    outer loop
      vertex 59.574486909441717 30.125657816420265 10.063785552978516
      vertex 59.574486909441717 19.430661936293312 10.013206481933594
      vertex 48.844517884783514 30.125657816420265 10.063785552978516
    endloop
  endfacet
  facet normal 0 1 0
    outer loop
      vertex -4.8155124802067206 -12.764337758530907 1.7347234759768071e-15
      vertex -4.8155124802067206 -12.764337758530907 10
      vertex 5.9344837050960138 -12.764337758530907 1.3565537582138631e-15
    endloop
  endfacet
  facet normal 0 1 0
    outer loop
      vertex -4.8155124802067206 -12.764337758530907 10
      vertex 5.9161512237117364 -12.764337758530907 10
      vertex 5.9344837050960138 -12.764337758530907 1.3565537582138631e-15
    endloop
  endfacet
  facet normal -0 1 0
    outer loop
      vertex 5.9344837050960138 -12.764337758530907 1.3565537582138631e-15
      vertex 5.9161512237117364 -12.764337758530907 10
      vertex 16.647818742327459 -12.764337758530907 10
    endloop
  endfacet
  facet normal 0 1 -0
    outer loop
      vertex 5.9344837050960138 -12.764337758530907 1.3565537582138631e-15
      vertex 16.647818742327459 -12.764337758530907 10
      vertex 16.684481797747381 -12.764337758530907 10
    endloop
  endfacet
  facet normal 0 1 0
    outer loop
      vertex 59.574486909441717 -12.764337758530907 1.7347234759768071e-15
      vertex 48.824483094744451 -12.764337758530907 1.6930901125533637e-15
      vertex 59.574486909441717 -12.764337758530907 10
    endloop
  endfacet
  facet normal 0 1 -0
    outer loop
      vertex 38.074483094744451 -12.764337758530907 10
      vertex 38.111149964861639 -12.764337758530907 10
      vertex 48.824483094744451 -12.764337758530907 1.6930901125533637e-15
    endloop
  endfacet
  facet normal -0 1 0
    outer loop
      vertex 48.824483094744451 -12.764337758530907 1.6930901125533637e-15
      vertex 38.111149964861639 -12.764337758530907 10
      vertex 48.842816529803045 -12.764337758530907 10
    endloop
  endfacet
  facet normal 0 1 -0
    outer loop
      vertex 48.824483094744451 -12.764337758530907 1.6930901125533637e-15
      vertex 48.842816529803045 -12.764337758530907 10
      vertex 59.574486909441717 -12.764337758530907 10
    endloop
  endfacet
  facet normal -1 0 0
    outer loop
      vertex 59.574486909441717 -12.764337758530907 10
      vertex 59.574486909441717 -2.014340619553856 1.0564465968698755e-15
      vertex 59.574486909441717 -12.764337758530907 1.7347234759768071e-15
    endloop
  endfacet
  facet normal -1 0 -0
    outer loop
      vertex 59.574486909441717 8.7356603341204604 1.6237011735142914e-15
      vertex 59.574486909441717 -2.014340619553856 1.0564465968698755e-15
      vertex 59.574486909441717 8.7356603341204604 10
    endloop
  endfacet
  facet normal -1 0 -0
    outer loop
      vertex 59.574486909441717 -2.014340619553856 1.0564465968698755e-15
      vertex 59.574486909441717 -12.764337758530907 10
      vertex 59.574486909441717 8.7356603341204604 10
    endloop
  endfacet
  facet normal 0 -1 -0
    outer loop
      vertex 48.824483094744451 8.7356603341204604 1.5660216179380626e-15
      vertex 59.574486909441717 8.7356603341204604 1.6237011735142914e-15
      vertex 59.574486909441717 8.7356603341204604 10
    endloop
  endfacet
  facet normal -0 -1 -0
    outer loop
      vertex 48.824483094744451 8.7356603341204604 1.5660216179380626e-15
      vertex 59.574486909441717 8.7356603341204604 10
      vertex 38.074483094744451 8.7356603341204604 10
    endloop
  endfacet
  facet normal 0 1 0
    outer loop
      vertex 38.074483094744451 -12.764337758530907 1.7347234759768071e-15
      vertex 38.074483094744451 -12.764337758530907 10
      vertex 48.824483094744451 -12.764337758530907 1.6930901125533637e-15
    endloop
  endfacet
  facet normal 1 0 0
    outer loop
      vertex 38.074483094744451 -12.764337758530907 1.7347234759768071e-15
      vertex 38.074483094744451 -2.014340619553856 1.5178830414797062e-15
      vertex 38.074483094744451 -12.764337758530907 10
    endloop
  endfacet
  facet normal 1 0 -0
    outer loop
      vertex 38.074483094744451 8.7356603341204604 10
      vertex 38.074483094744451 -12.764337758530907 10
      vertex 38.074483094744451 -2.014340619553856 1.5178830414797062e-15
    endloop
  endfacet
  facet normal 1 -0 0
    outer loop
      vertex 38.074483094744451 -2.014340619553856 1.5178830414797062e-15
      vertex 38.074483094744451 8.7356603341204604 1.7347234759768071e-15
      vertex 38.074483094744451 8.7356603341204604 10
    endloop
  endfacet
  facet normal 0 -1 0
    outer loop
      vertex 38.074483094744451 8.7356603341204604 10
      vertex 38.074483094744451 8.7356603341204604 1.7347234759768071e-15
      vertex 48.824483094744451 8.7356603341204604 1.5660216179380626e-15
    endloop
  endfacet
  facet normal 1 0 -0
    outer loop
      vertex -4.8155124802067206 8.7356603341204604 10
      vertex -4.8155124802067206 -12.764337758530907 10
      vertex -4.8155124802067206 -2.014340619553856 1.0286910212542466e-15
    endloop
  endfacet
  facet normal 1 0 0
    outer loop
      vertex -4.8155124802067206 -12.764337758530907 1.7347234759768071e-15
      vertex -4.8155124802067206 -2.014340619553856 1.0286910212542466e-15
      vertex -4.8155124802067206 -12.764337758530907 10
    endloop
  endfacet
  facet normal 1 -0 0
    outer loop
      vertex -4.8155124802067206 -2.014340619553856 1.0286910212542466e-15
      vertex -4.8155124802067206 8.7356603341204604 1.5126788710517758e-15
      vertex -4.8155124802067206 8.7356603341204604 10
    endloop
  endfacet
  facet normal 0 -1 0
    outer loop
      vertex -4.8155124802067206 8.7356603341204604 10
      vertex -4.8155124802067206 8.7356603341204604 1.5126788710517758e-15
      vertex 5.9344837050960138 8.7356603341204604 1.6375789613221059e-15
    endloop
  endfacet
  facet normal 2.1682695970597776e-05 0.0047509353269534343 -0.99998871400800304
    outer loop
      vertex 27.385396180681951 8.7841813759905776 9.9626264572143555
      vertex 16.753861604265936 8.8327024178606948 9.9626264572143555
      vertex 16.694935975603826 19.479181070814796 10.013206481933594
    endloop
  endfacet
  facet normal -4.2745727406927605e-05 0.0047505787363747044 -0.9999887150235609
    outer loop
      vertex 16.694935975603826 19.479181070814796 10.013206481933594
      vertex 16.753861604265936 8.8327024178606948 9.9626264572143555
      vertex 5.9690162520930841 8.7356603341204604 9.9626264572143555
    endloop
  endfacet
  facet normal 1.0717608529160118e-05 0.0047399751404600555 -0.99998876619730126
    outer loop
      vertex 27.385396180681951 8.7841813759905776 9.9626264572143555
      vertex 16.694935975603826 19.479181070814796 10.013206481933594
      vertex 27.375279603533514 30.125657816420265 10.063785552978516
    endloop
  endfacet
  facet normal 0.0023406889059580075 0.0023710758604884095 -0.99999444957195116
    outer loop
      vertex 16.694935975603826 19.479181070814796 10.013206481933594
      vertex 5.9690162520930841 8.7356603341204604 9.9626264572143555
      vertex 5.9102460723445489 30.125657816420265 10.013206481933594
    endloop
  endfacet
  facet normal 0 0.0047507266000326271 -0.999988715234713
    outer loop
      vertex 27.375279603533514 30.125657816420265 10.063785552978516
      vertex 16.694935975603826 19.479181070814796 10.013206481933594
      vertex 16.636008439593084 30.125657816420265 10.063785552978516
    endloop
  endfacet
  facet normal 0.004715555864913428 0.0047767734753733056 -0.99997747273028603
    outer loop
      vertex 5.9102460723445489 30.125657816420265 10.013206481933594
      vertex 16.636008439593084 30.125657816420265 10.063785552978516
      vertex 16.694935975603826 19.479181070814796 10.013206481933594
    endloop
  endfacet
  facet normal 0.99999745925681049 -0.0022542138149605618 0
    outer loop
      vertex 16.684481797747381 51.625661631117531 10
      vertex 16.668326554827459 44.458993692885109 10.021262168884277
      vertex 16.684481797747381 51.625661631117531 5
    endloop
  endfacet
  facet normal 0.99999806808212188 -0.0011247162031075026 0.0016120935104842091
    outer loop
      vertex 16.684481797747381 44.458993692885109 2.0917609922551771e-15
      vertex 16.684481797747381 51.625661631117531 5
      vertex 16.668326554827459 44.458993692885109 10.021262168884277
    endloop
  endfacet
  facet normal 0 1 -0
    outer loop
      vertex 16.684481797747381 51.625661631117531 10
      vertex 16.684481797747381 51.625661631117531 5
      vertex -4.8155124802067206 51.625661631117531 14.25
    endloop
  endfacet
  facet normal -0 1 0
    outer loop
      vertex 16.684481797747381 51.625661631117531 5
      vertex 5.9344837050960138 51.625661631117531 1.8388068845354155e-15
      vertex -4.8155124802067206 51.625661631117531 1.7347234759768071e-15
    endloop
  endfacet
  facet normal 1.0327659707852177e-17 -4.1310624172098847e-17 -1
    outer loop
      vertex -4.8155124802067206 51.625661631117531 1.7347234759768071e-15
      vertex 5.9344837050960138 51.625661631117531 1.8457457784393227e-15
      vertex -4.8155124802067206 40.875661631117531 2.1788126858268697e-15
    endloop
  endfacet
  facet normal 0 1 0
    outer loop
      vertex -4.8155124802067206 51.625661631117531 1.7347234759768071e-15
      vertex -4.8155124802067206 51.625661631117531 14.25
      vertex 16.684481797747381 51.625661631117531 5
    endloop
  endfacet
  facet normal -1 0 0
    outer loop
      vertex -4.8155124802067206 30.125657816420265 10.063785552978516
      vertex -4.8155124802067206 51.625661631117531 1.7347234759768071e-15
      vertex -4.8155124802067206 40.875661631117531 2.1233015345956119e-15
    endloop
  endfacet
  facet normal -1 0 0
    outer loop
      vertex -4.8155124802067206 51.625661631117531 14.25
      vertex -4.8155124802067206 51.625661631117531 1.7347234759768071e-15
      vertex -4.8155124802067206 30.125657816420265 10.063785552978516
    endloop
  endfacet
  facet normal -1.7593174664206186e-08 -0.0029667743855096079 -0.99999559911518876
    outer loop
      vertex 38.094517884783514 40.875661631117531 10.031892776489258
      vertex 16.668326554827459 44.458993692885109 10.021262168884277
      vertex 27.379487214617498 51.625661631117531 10
    endloop
  endfacet
  facet normal 0 -0.0029668006796902953 -0.99999559903717927
    outer loop
      vertex 27.379487214617498 51.625661631117531 10
      vertex 16.668326554827459 44.458993692885109 10.021262168884277
      vertex 16.684481797747381 51.625661631117531 10
    endloop
  endfacet
  facet normal 2.6399167943232587e-10 -0.0029666676112311916 -0.9999955994319597
    outer loop
      vertex 16.668326554827459 44.458993692885109 10.021262168884277
      vertex 38.094517884783514 40.875661631117531 10.031892776489258
      vertex 16.652165589861639 37.292325754652687 10.042523384094238
    endloop
  endfacet
  facet normal -0 -0.0029667568497191987 -0.99999559916721359
    outer loop
      vertex 38.094517884783514 40.875661631117531 10.031892776489258
      vertex 27.379487214617498 51.625661631117531 10
      vertex 38.074483094744451 51.625661631117531 10
    endloop
  endfacet
  facet normal -0.99999628013060637 -0.0018577695234388062 0.0019971022376967171
    outer loop
      vertex 38.074483094744451 40.875661631117531 1.7086507430691357e-15
      vertex 38.094517884783514 40.875661631117531 10.031892776489258
      vertex 38.074483094744451 51.625661631117531 10
    endloop
  endfacet
  facet normal -1 0 0
    outer loop
      vertex 38.074483094744451 40.875661631117531 1.7069679003611782e-15
      vertex 38.074483094744451 51.625661631117531 10
      vertex 38.074483094744451 51.625661631117531 1.4016565685892601e-15
    endloop
  endfacet
  facet normal 1 -0 -0
    outer loop
      vertex 59.574486909441717 30.125657816420265 10.063785552978516
      vertex 59.574486909441717 30.125657816420265 2.8345381597461028e-15
      vertex 59.574486909441717 40.875661631117531 2.1510571102112408e-15
    endloop
  endfacet
  facet normal 1.5491478567299773e-17 -4.1310609512799395e-17 -1
    outer loop
      vertex 59.574486909441717 40.875661631117531 2.1788126858268697e-15
      vertex 59.574486909441717 30.125657816420265 2.6229018956769323e-15
      vertex 48.824483094744451 30.125657816420265 2.4563684419831588e-15
    endloop
  endfacet
  facet normal 1 0 0
    outer loop
      vertex 59.574486909441717 30.125657816420265 10.063785552978516
      vertex 59.574486909441717 40.875661631117531 2.1510571102112408e-15
      vertex 59.574486909441717 51.625661631117531 1.7347234759768071e-15
    endloop
  endfacet
  facet normal 2.3237221973876899e-17 -4.9056352919376521e-17 -1
    outer loop
      vertex 38.074483094744451 40.875661631117531 1.6792123247455493e-15
      vertex 59.574486909441717 40.875661631117531 2.1788126858268697e-15
      vertex 48.824483094744451 30.125657816420265 2.4563684419831588e-15
    endloop
  endfacet
  facet normal 3.0982957134599546e-17 -4.1310624172098847e-17 -1
    outer loop
      vertex 59.574486909441717 40.875661631117531 2.1788126858268697e-15
      vertex 48.824483094744451 51.625661631117531 1.4016565685892601e-15
      vertex 59.574486909441717 51.625661631117531 1.7347234759768071e-15
    endloop
  endfacet
  facet normal 1.5491484064537068e-17 -5.6802088080099159e-17 -1
    outer loop
      vertex 38.074483094744451 30.125657816420265 2.2898349882893854e-15
      vertex 38.074483094744451 40.875661631117531 1.6792123247455493e-15
      vertex 48.824483094744451 30.125657816420265 2.4563684419831588e-15
    endloop
  endfacet
  facet normal 2.3237221973876899e-17 -4.9056362081438678e-17 -1
    outer loop
      vertex 59.574486909441717 40.875661631117531 2.1788126858268697e-15
      vertex 38.074483094744451 40.875661631117531 1.6792123247455493e-15
      vertex 48.824483094744451 51.625661631117531 1.4016565685892601e-15
    endloop
  endfacet
  facet normal -0.99999035897858302 -0.0018518705111991193 0.0039815230119431824
    outer loop
      vertex 38.074483094744451 30.125657816420265 2.005615200420573e-15
      vertex 38.114552674822576 30.125657816420265 10.063785552978516
      vertex 38.094517884783514 40.875661631117531 10.031892776489258
    endloop
  endfacet
  facet normal -0 -0.0029667557969586772 -0.99999559917033709
    outer loop
      vertex 27.375279603533514 30.125657816420265 10.063785552978516
      vertex 38.094517884783514 40.875661631117531 10.031892776489258
      vertex 38.114552674822576 30.125657816420265 10.063785552978516
    endloop
  endfacet
  facet normal 0 -1 0
    outer loop
      vertex 48.844517884783514 30.125657816420265 10.063785552978516
      vertex 38.114552674822576 30.125657816420265 10.063785552978516
      vertex 38.074483094744451 30.125657816420265 2.0079424234431542e-15
    endloop
  endfacet
  facet normal -0.9999980057824549 5.5390986223048472e-20 0.0019971056840127053
    outer loop
      vertex 38.074483094744451 30.125657816420265 2.0057716897575783e-15
      vertex 38.094517884783514 40.875661631117531 10.031892776489258
      vertex 38.074483094744451 40.875661631117531 1.7076135512252228e-15
    endloop
  endfacet
  facet normal 1.8000871668337459e-08 -0.0029667737461555022 -0.99999559911708547
    outer loop
      vertex 38.094517884783514 40.875661631117531 10.031892776489258
      vertex 27.375279603533514 30.125657816420265 10.063785552978516
      vertex 16.652165589861639 37.292325754652687 10.042523384094238
    endloop
  endfacet
  facet normal -0 -1 0
    outer loop
      vertex 48.844517884783514 30.125657816420265 10.063785552978516
      vertex 38.074483094744451 30.125657816420265 2.0079424234431542e-15
      vertex 48.824483094744451 30.125657816420265 1.9689111452336761e-15
    endloop
  endfacet
  facet normal 0 -1 0
    outer loop
      vertex 59.574486909441717 30.125657816420265 10.063785552978516
      vertex 48.844517884783514 30.125657816420265 10.063785552978516
      vertex 48.824483094744451 30.125657816420265 1.9689111452336761e-15
    endloop
  endfacet
  facet normal 0 -1 -0
    outer loop
      vertex 59.574486909441717 30.125657816420265 10.063785552978516
      vertex 48.824483094744451 30.125657816420265 1.9689111452336761e-15
      vertex 59.574486909441717 30.125657816420265 2.8345381597461028e-15
    endloop
  endfacet
  facet normal 0 1 0
    outer loop
      vertex 38.111149964861639 -12.764337758530907 10
      vertex 38.074483094744451 -12.764337758530907 10
      vertex 16.647818742327459 -12.764337758530907 12.125
    endloop
  endfacet
  facet normal -0 1 -0
    outer loop
      vertex 16.647818742327459 -12.764337758530907 12.125
      vertex 38.074483094744451 -12.764337758530907 10
      vertex 16.684481797747381 -12.764337758530907 10
    endloop
  endfacet
  facet normal -0 1 0
    outer loop
      vertex 16.647818742327459 -12.764337758530907 12.125
      vertex 16.684481797747381 -12.764337758530907 10
      vertex 16.647818742327459 -12.764337758530907 10
    endloop
  endfacet
  facet normal 0 1 -0
    outer loop
      vertex 38.111149964861639 -12.764337758530907 12.125
      vertex 38.111149964861639 -12.764337758530907 10
      vertex 16.647818742327459 -12.764337758530907 12.125
    endloop
  endfacet
  facet normal 0 1 0
    outer loop
      vertex 16.647818742327459 -12.764337758530907 12.125
      vertex 16.647818742327459 -12.764337758530907 14.25
      vertex 38.111149964861639 -12.764337758530907 12.125
    endloop
  endfacet
  facet normal 0 1 -0
    outer loop
      vertex 16.647818742327459 -12.764337758530907 14.25
      vertex 16.647818742327459 -12.764337758530907 12.125
      vertex 5.9161512237117364 -12.764337758530907 14.25
    endloop
  endfacet
  facet normal 0 1 0
    outer loop
      vertex 16.647818742327459 -12.764337758530907 10
      vertex 5.9161512237117364 -12.764337758530907 10
      vertex 5.9161512237117364 -12.764337758530907 12.125
    endloop
  endfacet
  facet normal 0 1 0
    outer loop
      vertex 5.9161512237117364 -12.764337758530907 10
      vertex -4.8155124802067206 -12.764337758530907 10
      vertex 5.9161512237117364 -12.764337758530907 12.125
    endloop
  endfacet
  facet normal 0 1 -0
    outer loop
      vertex 16.647818742327459 -12.764337758530907 12.125
      vertex 16.647818742327459 -12.764337758530907 10
      vertex 5.9161512237117364 -12.764337758530907 12.125
    endloop
  endfacet
  facet normal -0 1 -0
    outer loop
      vertex -4.8155124802067206 -12.764337758530907 14.25
      vertex 5.9161512237117364 -12.764337758530907 12.125
      vertex -4.8155124802067206 -12.764337758530907 10
    endloop
  endfacet
  facet normal 0 1 0
    outer loop
      vertex 16.647818742327459 -12.764337758530907 12.125
      vertex 5.9161512237117364 -12.764337758530907 12.125
      vertex 5.9161512237117364 -12.764337758530907 14.25
    endloop
  endfacet
  facet normal 0 1 -0
    outer loop
      vertex 5.9161512237117364 -12.764337758530907 14.25
      vertex 5.9161512237117364 -12.764337758530907 12.125
      vertex -4.8155124802067206 -12.764337758530907 14.25
    endloop
  endfacet
  facet normal 0 1 0
    outer loop
      vertex 48.842816529803045 -12.764337758530907 10
      vertex 38.111149964861639 -12.764337758530907 10
      vertex 38.111149964861639 -12.764337758530907 12.125
    endloop
  endfacet
  facet normal 0 1 -0
    outer loop
      vertex 48.842816529803045 -12.764337758530907 12.125
      vertex 48.842816529803045 -12.764337758530907 10
      vertex 38.111149964861639 -12.764337758530907 12.125
    endloop
  endfacet
  facet normal 0 1 0
    outer loop
      vertex 59.574486909441717 -12.764337758530907 10
      vertex 48.842816529803045 -12.764337758530907 10
      vertex 48.842816529803045 -12.764337758530907 12.125
    endloop
  endfacet
  facet normal 0 1 -0
    outer loop
      vertex 59.574486909441717 -12.764337758530907 14.25
      vertex 59.574486909441717 -12.764337758530907 10
      vertex 48.842816529803045 -12.764337758530907 12.125
    endloop
  endfacet
  facet normal 0 -1 0
    outer loop
      vertex 16.660245118670233 30.125657816420265 5.0318927764892578
      vertex 16.636008439593084 30.125657816420265 10.063785552978516
      vertex 5.9102460723445489 30.125657816420265 10.063785552978516
    endloop
  endfacet
  facet normal 0.99998589118086922 -0.0022401640844877664 0.0048165448277172262
    outer loop
      vertex 16.636008439593084 30.125657816420265 10.063785552978516
      vertex 16.660245118670233 30.125657816420265 5.0318927764892578
      vertex 16.652165589861639 37.292325754652687 10.042523384094238
    endloop
  endfacet
  facet normal -0 -1 -0
    outer loop
      vertex 5.9102460723445489 30.125657816420265 10.063785552978516
      vertex 5.9344837050960138 30.125657816420265 2.7278526659735292e-15
      vertex 16.660245118670233 30.125657816420265 5.0318927764892578
    endloop
  endfacet
  facet normal -0 -0.0029668006796902953 -0.99999559903717916
    outer loop
      vertex 16.636008439593084 30.125657816420265 10.063785552978516
      vertex 16.652165589861639 37.292325754652687 10.042523384094238
      vertex 27.375279603533514 30.125657816420265 10.063785552978516
    endloop
  endfacet
  facet normal 0.99999419252252109 -0.0011224628133787017 0.003217918343239921
    outer loop
      vertex 16.684481797747381 37.292325754652687 2.5331447788717095e-15
      vertex 16.652165589861639 37.292325754652687 10.042523384094238
      vertex 16.660245118670233 30.125657816420265 5.0318927764892578
    endloop
  endfacet
  facet normal 0 -1 -0
    outer loop
      vertex 5.9344837050960138 30.125657816420265 2.7278526659735292e-15
      vertex 16.684481797747381 30.125657816420265 2.6680047060523293e-15
      vertex 16.660245118670233 30.125657816420265 5.0318927764892578
    endloop
  endfacet
  facet normal 0.99998840032247427 1.2750465762861321e-19 0.0048165569132807614
    outer loop
      vertex 16.660245118670233 30.125657816420265 5.0318927764892578
      vertex 16.684481797747381 30.125657816420265 2.6834276937141724e-15
      vertex 16.684481797747381 37.292325754652687 2.4937105247375751e-15
    endloop
  endfacet
  facet normal 5.1638289377190586e-18 -3.6146799586360411e-17 -1
    outer loop
      vertex 5.9344837050960138 30.125657816420265 2.6784130469081902e-15
      vertex 16.684481797747381 37.292325754652687 2.4748720884741659e-15
      vertex 16.684481797747381 30.125657816420265 2.733924198139448e-15
    endloop
  endfacet
  facet normal 0.9999987005747687 -0 0.0016120945301234704
    outer loop
      vertex 16.684481797747381 37.292325754652687 2.4801107754946969e-15
      vertex 16.684481797747381 44.458993692885109 2.1006393798500599e-15
      vertex 16.668326554827459 44.458993692885109 10.021262168884277
    endloop
  endfacet
  facet normal 5.1638092392749306e-18 -3.6146770038704704e-17 -1
    outer loop
      vertex 16.684481797747381 44.458993692885109 2.2158201905671205e-15
      vertex 16.684481797747381 37.292325754652687 2.4748720884741659e-15
      vertex 5.9344837050960138 30.125657816420265 2.6784130469081902e-15
    endloop
  endfacet
  facet normal 0.99999230145868401 -0.0022454540887924157 0.0032179122579155707
    outer loop
      vertex 16.684481797747381 37.292325754652687 2.4636217968687342e-15
      vertex 16.668326554827459 44.458993692885109 10.021262168884277
      vertex 16.652165589861639 37.292325754652687 10.042523384094238
    endloop
  endfacet
  facet normal 8.6063881290131432e-18 -3.8728703289794832e-17 -1
    outer loop
      vertex 16.684481797747381 44.458993692885109 2.2158201905671205e-15
      vertex 5.9344837050960138 30.125657816420265 2.6784130469081902e-15
      vertex 5.9344837050960138 51.625661631117531 1.8457457784393227e-15
    endloop
  endfacet
  facet normal 1 0 -0
    outer loop
      vertex 16.684481797747381 51.625661631117531 5
      vertex 16.684481797747381 44.458993692885109 2.095545958979983e-15
      vertex 16.684481797747381 51.625661631117531 1.8457457784393227e-15
    endloop
  endfacet
  facet normal 1.0327657875438119e-17 -3.6146799586360411e-17 -1
    outer loop
      vertex 5.9344837050960138 51.625661631117531 1.8457457784393227e-15
      vertex 16.684481797747381 51.625661631117531 1.9567680809018384e-15
      vertex 16.684481797747381 44.458993692885109 2.2158201905671205e-15
    endloop
  endfacet
  facet normal 0 1 -0
    outer loop
      vertex 16.684481797747381 51.625661631117531 5
      vertex 16.684481797747381 51.625661631117531 1.8457457784393227e-15
      vertex 5.9344837050960138 51.625661631117531 1.8388068845354155e-15
    endloop
  endfacet
  facet normal -0 -1 0
    outer loop
      vertex 5.9102460723445489 30.125657816420265 10.063785552978516
      vertex -4.8155124802067206 30.125657816420265 10.063785552978516
      vertex -4.8155124802067206 30.125657816420265 2.940356291780688e-15
    endloop
  endfacet
  facet normal -1 0 -0
    outer loop
      vertex -4.8155124802067206 30.125657816420265 10.063785552978516
      vertex -4.8155124802067206 40.875661631117531 2.1233015345956119e-15
      vertex -4.8155124802067206 30.125657816420265 2.940356291780688e-15
    endloop
  endfacet
  facet normal 0 -1 0
    outer loop
      vertex 5.9102460723445489 30.125657816420265 10.063785552978516
      vertex -4.8155124802067206 30.125657816420265 2.940356291780688e-15
      vertex 5.9344837050960138 30.125657816420265 2.7278526659735292e-15
    endloop
  endfacet
  facet normal 5.1638298539260887e-18 -4.1310609512799395e-17 -1
    outer loop
      vertex -4.8155124802067206 40.875661631117531 2.1788126858268697e-15
      vertex 5.9344837050960138 30.125657816420265 2.6784130469081902e-15
      vertex -4.8155124802067206 30.125657816420265 2.6229018956769323e-15
    endloop
  endfacet
  facet normal 7.7457379093388542e-18 -3.8728703289794832e-17 -1
    outer loop
      vertex 5.9344837050960138 30.125657816420265 2.6784130469081902e-15
      vertex -4.8155124802067206 40.875661631117531 2.1788126858268697e-15
      vertex 5.9344837050960138 51.625661631117531 1.8457457784393227e-15
    endloop
  endfacet
  facet normal 0 1 0
    outer loop
      vertex 48.842816529803045 -12.764337758530907 12.125
      vertex 38.111149964861639 -12.764337758530907 12.125
      vertex 38.111149964861639 -12.764337758530907 14.25
    endloop
  endfacet
  facet normal -0 1 -0
    outer loop
      vertex 16.647818742327459 -12.764337758530907 14.25
      vertex 38.111149964861639 -12.764337758530907 14.25
      vertex 38.111149964861639 -12.764337758530907 12.125
    endloop
  endfacet
  facet normal 0 1 -0
    outer loop
      vertex 48.842816529803045 -12.764337758530907 14.25
      vertex 48.842816529803045 -12.764337758530907 12.125
      vertex 38.111149964861639 -12.764337758530907 14.25
    endloop
  endfacet
  facet normal -0 1 0
    outer loop
      vertex 48.842816529803045 -12.764337758530907 12.125
      vertex 48.842816529803045 -12.764337758530907 14.25
      vertex 59.574486909441717 -12.764337758530907 14.25
    endloop
  endfacet
  facet normal 0 0 -1
    outer loop
      vertex -4.8155124802067206 -2.014340619553856 1.7347234759768071e-15
      vertex 16.684481797747381 -2.014340619553856 1.7347234759768071e-15
      vertex 5.9344837050960138 -12.764337758530907 1.7347234759768071e-15
    endloop
  endfacet
  facet normal -0 -0 -1
    outer loop
      vertex 16.684481797747381 -2.014340619553856 1.7347234759768071e-15
      vertex -4.8155124802067206 -2.014340619553856 1.7347234759768071e-15
      vertex 5.9344837050960138 8.7356603341204604 1.7347234759768071e-15
    endloop
  endfacet
  facet normal -0 0.00099058791912023762 -0.99999950936766702
    outer loop
      vertex 27.379487214617498 -12.763179193248085 9.9413299560546875
      vertex 38.074483094744451 8.7356603341204604 9.9626264572143555
      vertex 38.074483094744451 -12.763179193248085 9.9413299560546875
    endloop
  endfacet
  facet normal 0 0.00099058791912023762 -0.99999950936766702
    outer loop
      vertex 16.684481797747381 8.7356603341204604 9.9626264572143555
      vertex 27.379487214617498 -12.763179193248085 9.9413299560546875
      vertex 16.684481797747381 -12.763179193248085 9.9413299560546875
    endloop
  endfacet
  facet normal -0 0.00099058791912023762 -0.99999950936766702
    outer loop
      vertex 27.379487214617498 -12.763179193248085 9.9413299560546875
      vertex 16.684481797747381 8.7356603341204604 9.9626264572143555
      vertex 38.074483094744451 8.7356603341204604 9.9626264572143555
    endloop
  endfacet
  facet normal 0 0.00099062565831025502 -0.99999950933028203
    outer loop
      vertex 16.684481797747381 30.126821299086281 9.9838171005249023
      vertex 38.074483094744451 30.126821299086281 9.9838171005249023
      vertex 38.074483094744451 8.7356603341204604 9.9626264572143555
    endloop
  endfacet
  facet normal 0 0.00099062565831025524 -0.99999950933028214
    outer loop
      vertex 38.074483094744451 8.7356603341204604 9.9626264572143555
      vertex 38.074483094744451 30.126821299086281 9.9838171005249023
      vertex 59.574486909441717 30.126821299086281 9.9838171005249023
    endloop
  endfacet
  facet normal 0 0.00099062565831025502 -0.99999950933028203
    outer loop
      vertex 16.684481797747381 30.126821299086281 9.9838171005249023
      vertex 38.074483094744451 8.7356603341204604 9.9626264572143555
      vertex 16.684481797747381 8.7356603341204604 9.9626264572143555
    endloop
  endfacet
  facet normal -0 0.00099062565831025524 -0.99999950933028214
    outer loop
      vertex 59.574486909441717 30.126821299086281 9.9838171005249023
      vertex 59.574486909441717 8.7356603341204604 9.9626264572143555
      vertex 38.074483094744451 8.7356603341204604 9.9626264572143555
    endloop
  endfacet
  facet normal -0 0.00099062316548229252 -0.99999950933275172
    outer loop
      vertex 27.379487214617498 51.626821299086281 10.005115509033203
      vertex 38.074483094744451 51.626821299086281 10.005115509033203
      vertex 38.074483094744451 30.126821299086281 9.9838171005249023
    endloop
  endfacet
  facet normal -0 0.00099062316548229252 -0.99999950933275172
    outer loop
      vertex 16.684481797747381 30.126821299086281 9.9838171005249023
      vertex 27.379487214617498 51.626821299086281 10.005115509033203
      vertex 38.074483094744451 30.126821299086281 9.9838171005249023
    endloop
  endfacet
  facet normal 0 0.00099062565831025524 -0.99999950933028214
    outer loop
      vertex -4.8155124802067206 8.7356603341204604 9.9626264572143555
      vertex -4.8155124802067206 30.126821299086281 9.9838171005249023
      vertex 16.684481797747381 30.126821299086281 9.9838171005249023
    endloop
  endfacet
  facet normal -0 0.00099062565831025524 -0.99999950933028214
    outer loop
      vertex 16.684481797747381 30.126821299086281 9.9838171005249023
      vertex 16.684481797747381 8.7356603341204604 9.9626264572143555
      vertex -4.8155124802067206 8.7356603341204604 9.9626264572143555
    endloop
  endfacet
  facet normal 0 0.0009906231654822923 -0.99999950933275172
    outer loop
      vertex 16.684481797747381 30.126821299086281 9.9838171005249023
      vertex 16.684481797747381 51.626821299086281 10.005115509033203
      vertex 27.379487214617498 51.626821299086281 10.005115509033203
    endloop
  endfacet
  facet normal 1 0 -0
    outer loop
      vertex 59.574486909441717 51.625661631117531 10.063785552978516
      vertex 59.574486909441717 40.875661631117531 0.063785642385482788
      vertex 59.574486909441717 51.625661631117531 0.063785642385482788
    endloop
  endfacet
  facet normal 0 0 -1
    outer loop
      vertex 59.574486909441717 51.625661631117531 0.063785642385482788
      vertex 59.574486909441717 40.875661631117531 0.063785642385482788
      vertex 48.824483094744451 51.625661631117531 0.063785642385482788
    endloop
  endfacet
  facet normal 0 1 -0
    outer loop
      vertex 59.574486909441717 51.625661631117531 10.063785552978516
      vertex 59.574486909441717 51.625661631117531 0.063785642385482788
      vertex 48.824483094744451 51.625661631117531 0.063785642385482788
    endloop
  endfacet
  facet normal 1 -0 0
    outer loop
      vertex 59.574486909441717 30.125657816420265 0.063785642385482788
      vertex 59.574486909441717 40.875661631117531 0.063785642385482788
      vertex 59.574486909441717 30.125657816420265 10.063785552978516
    endloop
  endfacet
  facet normal 1 0 -0
    outer loop
      vertex 59.574486909441717 51.625661631117531 10.063785552978516
      vertex 59.574486909441717 30.125657816420265 10.063785552978516
      vertex 59.574486909441717 40.875661631117531 0.063785642385482788
    endloop
  endfacet
  facet normal -0 0 -1
    outer loop
      vertex 59.574486909441717 40.875661631117531 0.063785642385482788
      vertex 59.574486909441717 30.125657816420265 0.063785642385482788
      vertex 48.824483094744451 30.125657816420265 0.063785642385482788
    endloop
  endfacet
  facet normal -0 -1 0
    outer loop
      vertex 59.574486909441717 30.125657816420265 10.063785552978516
      vertex 48.824483094744451 30.125657816420265 0.063785642385482788
      vertex 59.574486909441717 30.125657816420265 0.063785642385482788
    endloop
  endfacet
  facet normal 0 1 0
    outer loop
      vertex 48.824483094744451 51.625661631117531 0.063785642385482788
      vertex 38.074483094744451 51.625661631117531 0.063785642385482788
      vertex 38.074483094744451 51.625661631117531 10.063785552978516
    endloop
  endfacet
  facet normal 0 -0 -1
    outer loop
      vertex 38.074483094744451 40.875661631117531 0.063785642385482788
      vertex 38.074483094744451 51.625661631117531 0.063785642385482788
      vertex 48.824483094744451 51.625661631117531 0.063785642385482788
    endloop
  endfacet
  facet normal 0 1 0
    outer loop
      vertex 59.574486909441717 51.625661631117531 10.063785552978516
      vertex 48.824483094744451 51.625661631117531 0.063785642385482788
      vertex 59.184483705096014 51.625661631117531 10.063785552978516
    endloop
  endfacet
  facet normal -0 1 0
    outer loop
      vertex 59.184483705096014 51.625661631117531 10.063785552978516
      vertex 48.824483094744451 51.625661631117531 0.063785642385482788
      vertex 38.074483094744451 51.625661631117531 10.063785552978516
    endloop
  endfacet
  facet normal -0 -0 -1
    outer loop
      vertex 59.574486909441717 40.875661631117531 0.063785642385482788
      vertex 38.074483094744451 40.875661631117531 0.063785642385482788
      vertex 48.824483094744451 51.625661631117531 0.063785642385482788
    endloop
  endfacet
  facet normal 0 0 -1
    outer loop
      vertex 38.074483094744451 40.875661631117531 0.063785642385482788
      vertex 48.824483094744451 30.125657816420265 0.063785642385482788
      vertex 38.074483094744451 30.125657816420265 0.063785642385482788
    endloop
  endfacet
  facet normal 0 -1 0
    outer loop
      vertex 48.824483094744451 30.125657816420265 0.063785642385482788
      vertex 38.074483094744451 30.125657816420265 10.063785552978516
      vertex 38.074483094744451 30.125657816420265 0.063785642385482788
    endloop
  endfacet
  facet normal 0 0 -1
    outer loop
      vertex 38.074483094744451 40.875661631117531 0.063785642385482788
      vertex 59.574486909441717 40.875661631117531 0.063785642385482788
      vertex 48.824483094744451 30.125657816420265 0.063785642385482788
    endloop
  endfacet
  facet normal -0 -1 -0
    outer loop
      vertex 38.074483094744451 30.125657816420265 10.063785552978516
      vertex 48.824483094744451 30.125657816420265 0.063785642385482788
      vertex 59.574486909441717 30.125657816420265 10.063785552978516
    endloop
  endfacet
  facet normal -1 0 -0
    outer loop
      vertex 38.074483094744451 40.875661631117531 0.063785642385482788
      vertex 38.074483094744451 30.125657816420265 10.063785552978516
      vertex 38.074483094744451 51.625661631117531 10.063785552978516
    endloop
  endfacet
  facet normal -1 0 0
    outer loop
      vertex 38.074483094744451 30.125657816420265 10.063785552978516
      vertex 38.074483094744451 40.875661631117531 0.063785642385482788
      vertex 38.074483094744451 30.125657816420265 0.063785642385482788
    endloop
  endfacet
  facet normal -1 -0 0
    outer loop
      vertex 38.074483094744451 51.625661631117531 10.063785552978516
      vertex 38.074483094744451 51.625661631117531 0.063785642385482788
      vertex 38.074483094744451 40.875661631117531 0.063785642385482788
    endloop
  endfacet
  facet normal -0 1 0
    outer loop
      vertex 37.981148896746404 51.625661631117531 10.063785552978516
      vertex 37.981148896746404 51.625661631117531 14.25
      vertex 59.184483705096014 51.625661631117531 14.25
    endloop
  endfacet
  facet normal 0 1 -0
    outer loop
      vertex 37.981148896746404 51.625661631117531 10.063785552978516
      vertex 59.184483705096014 51.625661631117531 14.25
      vertex 38.074483094744451 51.625661631117531 10.063785552978516
    endloop
  endfacet
  facet normal 0 1 -0
    outer loop
      vertex 38.074483094744451 51.625661631117531 10.063785552978516
      vertex 59.184483705096014 51.625661631117531 14.25
      vertex 59.184483705096014 51.625661631117531 10.063785552978516
    endloop
  endfacet
  facet normal -0 1 0
    outer loop
      vertex 16.777819810442693 51.625661631117531 10.063785552978516
      vertex 16.777819810442693 51.625661631117531 14.25
      vertex 37.981148896746404 51.625661631117531 14.25
    endloop
  endfacet
  facet normal 0 1 -0
    outer loop
      vertex 16.777819810442693 51.625661631117531 10.063785552978516
      vertex 37.981148896746404 51.625661631117531 14.25
      vertex 37.981148896746404 51.625661631117531 10.063785552978516
    endloop
  endfacet
  facet normal -0 1 0
    outer loop
      vertex -4.4255192894413398 51.625661631117531 10.063785552978516
      vertex -4.4255192894413398 51.625661631117531 14.25
      vertex 16.777819810442693 51.625661631117531 14.25
    endloop
  endfacet
  facet normal 0 1 -0
    outer loop
      vertex -4.4255192894413398 51.625661631117531 10.063785552978516
      vertex 16.777819810442693 51.625661631117531 14.25
      vertex 16.777819810442693 51.625661631117531 10.063785552978516
    endloop
  endfacet
  facet normal 1.5491478567299773e-17 -2.0655310253636505e-17 -1
    outer loop
      vertex 59.574486909441717 -2.014340619553856 1.5126788710517758e-15
      vertex 48.824483094744451 8.7356603341204604 1.124100812432971e-15
      vertex 59.574486909441717 8.7356603341204604 1.2906342661267445e-15
    endloop
  endfacet
  facet normal 0 0 1
    outer loop
      vertex 48.824483094744451 8.7356603341204604 1.7347234759768071e-15
      vertex 59.574486909441717 -2.014340619553856 1.7347234759768071e-15
      vertex 59.574486909441717 8.7356603341204604 1.7347234759768071e-15
    endloop
  endfacet
  facet normal 3.0982957134599546e-17 -2.0655317583290133e-17 -1
    outer loop
      vertex 59.574486909441717 -2.014340619553856 1.5126788710517758e-15
      vertex 59.574486909441717 -12.764337758530907 1.7347234759768071e-15
      vertex 48.824483094744451 -12.764337758530907 1.4016565685892601e-15
    endloop
  endfacet
  facet normal -0 0 1
    outer loop
      vertex 48.824483094744451 -12.764337758530907 1.7347234759768071e-15
      vertex 59.574486909441717 -12.764337758530907 1.7347234759768071e-15
      vertex 59.574486909441717 -2.014340619553856 1.7347234759768071e-15
    endloop
  endfacet
  facet normal 0 -0 -1
    outer loop
      vertex 16.684481797747381 8.7356603341204604 1.7347234759768071e-15
      vertex 16.684481797747381 -2.014340619553856 1.7347234759768071e-15
      vertex 5.9344837050960138 8.7356603341204604 1.7347234759768071e-15
    endloop
  endfacet
  facet normal -5.1638289377190594e-18 2.5819137817045627e-17 0.99999999999999989
    outer loop
      vertex 16.684481797747381 8.7356603341204604 1.4016565685892601e-15
      vertex 5.9344837050960138 8.7356603341204604 1.3461454173580023e-15
      vertex 16.684481797747381 -2.014340619553856 1.6792123247455493e-15
    endloop
  endfacet
  facet normal -0 0 -1
    outer loop
      vertex 16.684481797747381 -2.014340619553856 1.7347234759768071e-15
      vertex 16.684481797747381 -12.764337758530907 1.7347234759768071e-15
      vertex 5.9344837050960138 -12.764337758530907 1.7347234759768071e-15
    endloop
  endfacet
  facet normal -1.032765787543812e-17 2.5819146979112669e-17 1
    outer loop
      vertex 5.9344837050960138 -12.764337758530907 1.8457457784393227e-15
      vertex 16.684481797747381 -12.764337758530907 1.9567680809018384e-15
      vertex 16.684481797747381 -2.014340619553856 1.6792123247455493e-15
    endloop
  endfacet
  facet normal 0 0 -1
    outer loop
      vertex -4.8155124802067206 -2.014340619553856 1.7347234759768071e-15
      vertex 5.9344837050960138 -12.764337758530907 1.7347234759768071e-15
      vertex -4.8155124802067206 -12.764337758530907 1.7347234759768071e-15
    endloop
  endfacet
  facet normal -1.0327659707852177e-17 2.0655317583290133e-17 1
    outer loop
      vertex 5.9344837050960138 -12.764337758530907 1.8457457784393227e-15
      vertex -4.8155124802067206 -2.014340619553856 1.5126788710517758e-15
      vertex -4.8155124802067206 -12.764337758530907 1.7347234759768071e-15
    endloop
  endfacet
  facet normal -0 0 -1
    outer loop
      vertex -4.8155124802067206 -2.014340619553856 1.7347234759768071e-15
      vertex -4.8155124802067206 8.7356603341204604 1.7347234759768071e-15
      vertex 5.9344837050960138 8.7356603341204604 1.7347234759768071e-15
    endloop
  endfacet
  facet normal -5.1638298539260887e-18 2.0655310253636505e-17 1
    outer loop
      vertex 5.9344837050960138 8.7356603341204604 1.3461454173580023e-15
      vertex -4.8155124802067206 8.7356603341204604 1.2906342661267445e-15
      vertex -4.8155124802067206 -2.014340619553856 1.5126788710517758e-15
    endloop
  endfacet
  facet normal -0 -1 0
    outer loop
      vertex 16.684481797747381 -12.764337758530907 10
      vertex 5.9344837050960138 -12.764337758530907 1.7347234759768071e-15
      vertex 16.684481797747381 -12.764337758530907 1.8457457784393227e-15
    endloop
  endfacet
  facet normal 0 1 0
    outer loop
      vertex 16.684481797747381 -12.764337758530907 1.8457457784393227e-15
      vertex 5.9344837050960138 -12.764337758530907 1.7347234759768071e-15
      vertex 16.684481797747381 -12.764337758530907 10
    endloop
  endfacet
  facet normal -0 -1 0
    outer loop
      vertex 16.684481797747381 30.126821299086281 10.005115509033203
      vertex -4.8155124802067206 30.126821299086281 10.005115509033203
      vertex -4.8155124802067206 30.126821299086281 0.0051151211373507977
    endloop
  endfacet
  facet normal -1 0 -0
    outer loop
      vertex -4.8155124802067206 30.126821299086281 0.0051151211373507977
      vertex -4.8155124802067206 30.126821299086281 10.005115509033203
      vertex -4.8155124802067206 51.626821299086281 10.005115509033203
    endloop
  endfacet
  facet normal -0 -1 0
    outer loop
      vertex 16.684481797747381 30.126821299086281 10.005115509033203
      vertex -4.8155124802067206 30.126821299086281 0.0051151211373507977
      vertex 16.684481797747381 30.126821299086281 0.0051151211373507977
    endloop
  endfacet
  facet normal -1 0 0
    outer loop
      vertex -4.8155124802067206 30.126821299086281 0.0051151211373507977
      vertex -4.8155124802067206 51.626821299086281 10.005115509033203
      vertex -4.8155124802067206 51.626821299086281 0.0051151211373507977
    endloop
  endfacet
  facet normal 1 -0 -0
    outer loop
      vertex 16.684481797747381 30.126821299086281 10.005115509033203
      vertex 16.684481797747381 30.126821299086281 0.0051151211373507977
      vertex 16.684481797747381 51.626821299086281 0.0051151211373507977
    endloop
  endfacet
  facet normal 0 0 -1
    outer loop
      vertex 16.684481797747381 30.126821299086281 0.0051151211373507977
      vertex -4.8155124802067206 30.126821299086281 0.0051151211373507977
      vertex -4.8155124802067206 51.626821299086281 0.0051151211373507977
    endloop
  endfacet
  facet normal 0 1 0
    outer loop
      vertex 16.684481797747381 51.626821299086281 10.005115509033203
      vertex -4.8155124802067206 51.626821299086281 0.0051151211373507977
      vertex -4.8155124802067206 51.626821299086281 10.005115509033203
    endloop
  endfacet
  facet normal 1 0 0
    outer loop
      vertex 16.684481797747381 30.126821299086281 10.005115509033203
      vertex 16.684481797747381 51.626821299086281 0.0051151211373507977
      vertex 16.684481797747381 51.626821299086281 10.005115509033203
    endloop
  endfacet
  facet normal -0 0 -1
    outer loop
      vertex 16.684481797747381 30.126821299086281 0.0051151211373507977
      vertex -4.8155124802067206 51.626821299086281 0.0051151211373507977
      vertex 16.684481797747381 51.626821299086281 0.0051151211373507977
    endloop
  endfacet
  facet normal 0 1 -0
    outer loop
      vertex 16.684481797747381 51.626821299086281 10.005115509033203
      vertex 16.684481797747381 51.626821299086281 0.0051151211373507977
      vertex -4.8155124802067206 51.626821299086281 0.0051151211373507977
    endloop
  endfacet
  facet normal 7.7457440937337998e-18 -2.3237232968356671e-17 -1
    outer loop
      vertex -4.8155124802067206 -2.014340619553856 1.5126788710517758e-15
      vertex 16.684481797747381 -2.014340619553856 1.6792123247455493e-15
      vertex 5.9344837050960138 -12.764337758530907 1.8457457784393227e-15
    endloop
  endfacet
  facet normal 7.7457440937337998e-18 -2.3237223348186041e-17 -1
    outer loop
      vertex 16.684481797747381 -2.014340619553856 1.6792123247455493e-15
      vertex -4.8155124802067206 -2.014340619553856 1.5126788710517758e-15
      vertex 5.9344837050960138 8.7356603341204604 1.3461454173580023e-15
    endloop
  endfacet
endsolid OBJECT
